GREETZ: UnDeaD - BadGirl2k9 - virusofsaten - foxyb - WICCYWOLF - lizzymwah1

VISIT http://www.seedboxworld.biz/ for all ur seedbox needs!

RELEASE NAME: The.Twilight.Saga.Eclipse.2010.DVDSCR.X264-SDTeam
RELEASED BY: UnDeaD & BadGirl2k9
SIZE: 589 MB

LANGUAGE: English
IMDb: http://www.imdb.com/title/tt1325004/

PLOT: Bella once again finds herself surrounded by danger 
as Seattle is ravaged by a string of mysterious killings 
and a malicious vampire continues her quest for revenge. 
In the midst of it all, she is forced to choose between her 
love for Edward and her friendship with Jacob -- knowing that 
her decision has the potential to ignite the struggle between 
vampire and werewolf. With her graduation quickly approaching, 
Bella is confronted with the most important decision of her life. 

SCREENS: 
http://i658.photobucket.com/albums/uu309/BadGirl2k9/screens/vlcsnap-2010-08-19-02h23m01s165.png 
http://i658.photobucket.com/albums/uu309/BadGirl2k9/screens/vlcsnap-2010-08-19-02h36m39s26.png 
http://i658.photobucket.com/albums/uu309/BadGirl2k9/screens/vlcsnap-2010-08-19-02h38m46s9.png

General
Format                           : MPEG-4
Format profile                   : Base Media
Codec ID                         : isom
File size                        : 589 MiB
Duration                         : 2h 3mn
Overall bit rate                 : 665 Kbps
Encoded date                     : UTC 2010-08-18 01:09:56
Tagged date                      : UTC 2010-08-18 01:09:56

Video
ID                               : 1
Format                           : AVC
Format/Info                      : Advanced Video Codec
Format profile                   : High@L2.2
Format settings, CABAC           : Yes
Format settings, ReFrames        : 4 frames
Codec ID                         : avc1
Codec ID/Info                    : Advanced Video Coding
Duration                         : 2h 3mn
Duration_LastFrame               : 50ms
Bit rate mode                    : Variable
Bit rate                         : 500 Kbps
Maximum bit rate                 : 3 841 Kbps
Width                            : 720 pixels
Height                           : 304 pixels
Display aspect ratio             : 2.35:1
Frame rate mode                  : Constant
Frame rate                       : 20.000 fps
Resolution                       : 8 bits
Colorimetry                      : 4:2:0
Scan type                        : Progressive
Bits/(Pixel*Frame)               : 0.114
Stream size                      : 442 MiB (75%)
Title                            : Imported with GPAC 0.4.6-DEV (internal rev. 5)
Writing library                  : x264 core 102 r1666 d058f37

Audio
ID                               : 2
Format                           : MPEG Audio
Format version                   : Version 1
Format profile                   : Layer 3
Format_Settings_Mode             : Joint stereo
Format_Settings_ModeExtension    : MS Stereo
Codec ID                         : 6B
Duration                         : 2h 3mn
Bit rate mode                    : Variable
Bit rate                         : 163 Kbps
Minimum bit rate                 : 32.0 Kbps
Maximum bit rate                 : 241 Kbps
Channel(s)                       : 2 channels
Sampling rate                    : 48.0 KHz
Stream size                      : 145 MiB (25%)
Title                            : Imported with GPAC 0.4.6-DEV (internal rev. 5)
Writing library                  : LAME3.98r


GROUP NOTE: Big thanks to seedboxworld.biz for the seedbox!
